<svg id="Layer_1" data-name="Layer 1" xmlns="http://www.w3.org/2000/svg" viewBox="0 0 360 360"><defs><style>.cls-1{fill:#ff8c9d;}</style></defs><path class="cls-1" d="M294.41,163.21c.93-11.67-.69-22.92-6.18-33.33-11.79-22.36-29.92-35.88-55.4-38.47a57.21,57.21,0,0,0-21.92,1.67,82.73,82.73,0,0,0-21.63,9.72,2.13,2.13,0,0,1-2.86-.12c-11.4-8.23-23.79-14-38-15-9.4-.69-18.6.06-27.44,3.7-13.9,5.73-23.4,15.87-29.52,29.39a63.75,63.75,0,0,0-5.07,17.75,2.67,2.67,0,0,1-1.69,2.35,30,30,0,0,0-4.6,2.57,44.27,44.27,0,0,0-18.27,26.17,70.88,70.88,0,0,0,1.35,40.19,88.93,88.93,0,0,0,6,14.53,54.3,54.3,0,0,0,15.32,17.18,49.61,49.61,0,0,0,27,10c2.1.14,2.93,1.08,3.68,2.9,8.66,20.95,24.75,31.76,47,34a65.73,65.73,0,0,0,26.59-3.17c14.4-4.54,25.12-13.33,31.07-27.47.19-.46.4-.92.64-1.46,1.77.86,3.36,1.71,5,2.41,7.94,3.37,16.21,3.89,24.62,2.54A41.77,41.77,0,0,0,278.85,243a43.78,43.78,0,0,0,7.74-24.22,47.74,47.74,0,0,0-4.5-22.13,1.79,1.79,0,0,1,.31-1.45C289.17,185.6,293.46,175,294.41,163.21Zm-75-24.71c9.38,7.46,14.68,17.38,17,29s-.57,22-6.54,31.75c-7.62,12.47-18.52,20.8-32.71,24.48-6.36,1.65-12.91,1.43-19.41.65-.08,0-.14-.11-.34-.28.34-.13.6-.25.87-.34,14.48-4.92,27-12.67,35.75-25.54,5.17-7.55,6.92-15.94,6.81-25-.17-13.7-11.8-27.8-29.81-27.85a36.78,36.78,0,0,0-15.56,2.93c-7.32,3.32-11.75,9.23-14.7,16.47A44.34,44.34,0,0,0,158,177c-.1.89-.26,1.77-.43,2.89-7.25-3.52-12.69-8.62-14.74-16.37-3.28-12.37.36-22.57,10.4-29.94a44.2,44.2,0,0,1,19.18-7c1.69-.12,3.86-.39,6-.39C193.33,126.06,207.42,128.94,219.44,138.5ZM170,181a33.15,33.15,0,0,1,11.47-18.22,16.62,16.62,0,0,1,7.37-3.52,9.61,9.61,0,0,1,8.71,2.41,14,14,0,0,1,3.3,4.07c1,1.94,1,3.12-.22,4.69a34.81,34.81,0,0,1-15.16,11.19A27.77,27.77,0,0,1,175,183.65C168.84,184.1,170,181,170,181ZM87,219.66a69,69,0,0,1-7.07-13.09c-5.73-16.81-6.28-33,5.89-48,.21,1.82.38,3.28.54,4.75A90.75,90.75,0,0,0,92.47,187a65.25,65.25,0,0,0,11.31,18.2,25.5,25.5,0,0,0,3.9,3.73,3,3,0,0,1,1.24,2.76c0,5.65.08,11.31.27,17,.07,2.21.52,4.41.82,6.79C100.08,233.1,92.78,227.4,87,219.66Zm23.69-35.8a66.61,66.61,0,0,1-8.22-30.54c-.2-5.57-.38-11.14,1-16.59,4-16.33,13.47-28,29.62-33.35,14.8-4.9,28.3-1.66,40.34,8.05,1,.82,2,1.72,3,2.57-4.36.5-8.59.73-12.73,1.51-9.76,1.83-18.63,5.69-25.88,12.66A37.21,37.21,0,0,0,126,153.57c-.42,7-.16,14,2.39,20.66,3.71,9.68,10.84,16.1,20.05,20.41,8.7,4.08,17.91,5.19,27.39,4.61l4.25-.33a38.12,38.12,0,0,0,17.26-6.18c1.34-.86,2.53-1.94,3.85-2.84a51.73,51.73,0,0,1-10,10,49.43,49.43,0,0,1-17.67,8.33,41.07,41.07,0,0,1-11.12,1.71A60.75,60.75,0,0,1,136,206,49.2,49.2,0,0,1,110.67,183.86Zm160.15,34.89c-1,12-6.63,21.38-18,26.42-7,3.11-14.41,2.57-21.67.58a34.61,34.61,0,0,1-15.91-9.08c-.56-.57-1.21-1-2.08-1.78-.47,1.5-.91,2.7-1.24,3.93-3.5,12.9-11.71,21.73-23.69,27.19-11.32,5.16-23,6.11-34.84,2.12a40.1,40.1,0,0,1-23-19.18,51.61,51.61,0,0,1-5.65-18.41c-.19-1.41-.34-2.83-.45-4.25a16,16,0,0,1,.13-2,15.12,15.12,0,0,1,1.42.89c7.57,6.28,16.38,10.05,25.73,12.7,12.58,3.57,25.41,3.8,38.33,2.86,8.26-.6,16-3.19,23.52-6.45a68.91,68.91,0,0,0,23-15.59,47.68,47.68,0,0,0,9.78-14.19,68.91,68.91,0,0,0,5-15c.22-1.09.57-2.17.94-3.54,1.5,1,2.84,1.67,4,2.59C266,196.24,271.84,206,270.82,218.75ZM279,156.44c-.41,8.94-2.14,17.27-6.23,25.35-.49-.42-.91-.76-1.31-1.13a44.47,44.47,0,0,0-16.27-9.44,3.46,3.46,0,0,1-2.63-3.2C250,149.47,238,136,238,136a60.83,60.83,0,0,0-23.64-16.7c-4.38-1.73-9.1-2.59-13.67-3.84-.44-.11-.89-.19-1.61-.34,8.88-7.26,18.73-10.63,29.89-9.91,11,.71,20.67,4.92,29.36,11.51C258.3,116.72,280.14,132.4,279,156.44Z"/></svg>